<svg width="32" height="27" viewBox="0 0 32 27" fill="none" xmlns="http://www.w3.org/2000/svg">
<path d="M6.408 9.4375H25.592L16 18.6867L6.408 9.4375ZM4.902 10.5496L14.494 19.7971C14.6817 19.9783 14.9132 20.1236 15.173 20.2231C15.4327 20.3227 15.7147 20.3742 16 20.3742C16.2853 20.3742 16.5673 20.3227 16.827 20.2231C17.0868 20.1236 17.3183 19.9783 17.506 19.7971L27.098 10.5496C28.23 9.45775 27.31 7.75 25.592 7.75H6.408C6.02351 7.74972 5.64707 7.84296 5.32377 8.01855C5.00047 8.19414 4.74401 8.44464 4.5851 8.74004C4.42619 9.03545 4.37156 9.36325 4.42776 9.68417C4.48397 10.0051 4.64862 10.3056 4.902 10.5496Z" fill="white"/>
</svg>
