<svg width="16" height="16" viewBox="0 0 16 16" fill="none" xmlns="http://www.w3.org/2000/svg">
<path fill-rule="evenodd" clip-rule="evenodd" d="M2.99076 3.11048C1.69397 4.43901 0.978056 6.22828 1.00051 8.08466C1.02295 9.94104 1.78193 11.7125 3.11046 13.0093C4.43899 14.306 6.22826 15.022 8.08464 14.9995C9.94102 14.9771 11.7124 14.2181 13.0092 12.8896C14.306 11.561 15.0219 9.77175 14.9995 7.91537C14.977 6.05899 14.2181 4.28756 12.8895 2.99078C11.561 1.69399 9.77173 0.978078 7.91535 1.00053C6.05897 1.02298 4.28754 1.78195 2.99076 3.11048ZM13.7248 13.5881C12.2428 15.1064 10.2183 15.9738 8.09673 15.9994C5.97515 16.0251 3.93028 15.2069 2.41195 13.7249C0.893631 12.2428 0.0262326 10.2183 0.000576972 8.09675C-0.0250785 5.97517 0.79311 3.9303 2.27515 2.41198C3.75719 0.893653 5.78168 0.0262556 7.90326 0.000600194C10.0248 -0.0250552 12.0697 0.793133 13.588 2.27517C15.1064 3.75721 15.9738 5.78171 15.9994 7.90328C16.0251 10.0249 15.2069 12.0697 13.7248 13.5881ZM4.50639 8.50686C4.37372 8.50856 4.24581 8.45749 4.1508 8.36488C4.05578 8.27226 4.00145 8.1457 3.99975 8.01303C3.99806 7.88036 4.04913 7.75245 4.14174 7.65743C4.23436 7.56242 4.36092 7.50809 4.49359 7.50639L10.2865 7.43705L8.3057 5.50358C8.21081 5.41096 8.1566 5.28443 8.15499 5.15183C8.15339 5.01923 8.20453 4.89142 8.29715 4.79653C8.38978 4.70163 8.51631 4.64742 8.64891 4.64582C8.78151 4.64422 8.90931 4.69535 9.00421 4.78798L11.8487 7.56454C11.9436 7.65716 11.9978 7.7837 11.9995 7.91629C12.0011 8.04889 11.9499 8.1767 11.8573 8.27159L9.08073 11.1161C8.98811 11.211 8.86158 11.2652 8.72898 11.2668C8.59638 11.2684 8.46857 11.2173 8.37368 11.1247C8.27878 11.032 8.22457 10.9055 8.22297 10.7729C8.22136 10.6403 8.2725 10.5125 8.36513 10.4176L10.2986 8.43682L4.50639 8.50686Z" fill="#00FFFF"/>
</svg>
