<svg width="30" height="42" viewBox="0 0 30 42" fill="none" xmlns="http://www.w3.org/2000/svg">
<path d="M2.60098 1.20251L3.88273 2.26155L5.16446 3.33622V24.758L2.60098 26.5271V1.20251Z" fill="white"/>
<path d="M24.3905 17.1252L28.0001 17.2237L2.60097 33.1942L2.60097 31.1856L24.3905 17.1252Z" fill="white"/>
<path d="M22.0608 10.8408L25.5393 11.0147L5.1643 24.7576L4.83125 22.1359L22.0608 10.8408Z" fill="white"/>
<path d="M15.7015 7.72395L16.0578 5.47637L25.672 11.0997L22.1347 11.323L15.7015 7.72395Z" fill="white"/>
<path d="M16.3409 13.2222L16.3093 10.895L27.8169 17.2128L23.8484 17.5705L16.3409 13.2222Z" fill="white"/>
<path d="M10.2045 10.7989L12.6802 10.6984L13.1759 40.0344L10.5728 38.5015L10.2045 10.7989Z" fill="white"/>
<path d="M2.60086 1.45812L9.29258 6.27882L9.29258 8.18347L2.60086 3.46677L2.60086 1.45812Z" fill="white"/>
<path d="M10.2045 10.7779L16.059 5.47542L16.691 7.91349L12.6591 10.7778L10.2045 10.7779Z" fill="white"/>
</svg>
